<?xml version="1.0" encoding="utf-8"?>
<!-- Svg Vector Icons : http://www.onlinewebfonts.com/icon -->
<!DOCTYPE svg PUBLIC "-//W3C//DTD SVG 1.1//EN" "http://www.w3.org/Graphics/SVG/1.1/DTD/svg11.dtd">
<svg version="1.1" xmlns="http://www.w3.org/2000/svg" xmlns:xlink="http://www.w3.org/1999/xlink" x="0px" y="0px" height="1000" width="1000" viewBox="0 0 1000 1000" enable-background="new 0 0 1000 1000" xml:space="preserve">
<g><path d="M500,10C229.4,10,10,229.4,10,500c0,270.6,219.4,490,490,490c270.6,0,490-219.4,490-490C990,229.4,770.6,10,500,10z M500,867.5c-203,0-367.5-164.6-367.5-367.5c0-203,164.6-367.5,367.5-367.5C703,132.5,867.5,297,867.5,500C867.5,702.9,703,867.5,500,867.5z"/><path d="M714.4,438.8H561.3V285.6c0-16.9-13.7-30.6-30.6-30.6h-61.3c-16.9,0-30.6,13.7-30.6,30.6v153.1H285.6c-16.9,0-30.6,13.7-30.6,30.6v61.3c0,16.9,13.7,30.6,30.6,30.6h153.1v153.1c0,16.9,13.7,30.6,30.6,30.6h61.3c16.9,0,30.6-13.7,30.6-30.6V561.3h153.1c16.9,0,30.6-13.7,30.6-30.6v-61.3C745,452.4,731.3,438.8,714.4,438.8z"/></g>
</svg>
